<svg width="16" height="44" viewBox="0 0 16 44" fill="none" xmlns="http://www.w3.org/2000/svg">
<g id="SVG">
<path id="Vector" d="M14.988 27.202L11.118 23.332C11.819 22.403 12.24 21.251 12.24 20C12.24 16.94 9.751 14.45 6.69 14.45C3.63 14.45 1.14 16.94 1.14 20C1.14 23.061 3.63 25.55 6.69 25.55C7.941 25.55 9.093 25.129 10.022 24.428L13.892 28.298C14.043 28.449 14.242 28.526 14.44 28.526C14.638 28.526 14.836 28.45 14.988 28.298C15.291 27.995 15.291 27.505 14.988 27.202ZM2.24 20C2.24 17.546 4.237 15.55 6.69 15.55C9.144 15.55 11.14 17.547 11.14 20C11.14 22.453 9.144 24.45 6.69 24.45C4.236 24.45 2.24 22.454 2.24 20Z" fill="black" fill-opacity="0.8"/>
</g>
</svg>
